<?xml version="1.0" encoding="utf-8"?>
<!-- Generator: Adobe Illustrator 16.0.0, SVG Export Plug-In . SVG Version: 6.00 Build 0)  -->
<!DOCTYPE svg PUBLIC "-//W3C//DTD SVG 1.1//EN" "http://www.w3.org/Graphics/SVG/1.1/DTD/svg11.dtd">
<svg version="1.1" id="Calque_1" xmlns="http://www.w3.org/2000/svg" xmlns:xlink="http://www.w3.org/1999/xlink" x="0px" y="0px"
	 width="446.46px" height="595.281px" viewBox="0 0 446.46 595.281" enable-background="new 0 0 446.46 595.281"
	 xml:space="preserve">
<linearGradient id="SVGID_1_" gradientUnits="userSpaceOnUse" x1="-0.0449" y1="297.4004" x2="446.4155" y2="297.4004" gradientTransform="matrix(1 0 0 -1 0.0449 595.041)">
	<stop  offset="0" style="stop-color:#FFE67F;stop-opacity:0.7"/>
	<stop  offset="9.000042e-004" style="stop-color:#FFE67E;stop-opacity:0.7011"/>
	<stop  offset="0.0259" style="stop-color:#FFDF73;stop-opacity:0.7326"/>
	<stop  offset="0.0609" style="stop-color:#FFDB6C;stop-opacity:0.7769"/>
	<stop  offset="0.1584" style="stop-color:#FFDA6A;stop-opacity:0.9"/>
	<stop  offset="0.1962" style="stop-color:#FFD660;stop-opacity:0.8912"/>
	<stop  offset="0.5891" style="stop-color:#FFAA00;stop-opacity:0.8"/>
	<stop  offset="0.69" style="stop-color:#FF9F20;stop-opacity:0.8728"/>
	<stop  offset="0.8663" style="stop-color:#FF8D54"/>
</linearGradient>
<path fill="url(#SVGID_1_)" d="M260.435,158.121V0H27.904C12.441,0,0,12.44,0,27.904v539.473c0,15.463,12.44,27.904,27.904,27.904
	h390.652c15.463,0,27.904-12.441,27.904-27.904V186.025H288.339C272.992,186.025,260.435,173.468,260.435,158.121z M349.32,403.861
	L237.216,515.126c-7.73,7.686-20.219,7.686-27.95,0L97.164,403.861c-11.801-11.709-3.523-31.812,13.08-31.812h75.781v-93.013
	c0-10.278,8.325-18.603,18.604-18.603h37.203c10.279,0,18.605,8.325,18.605,18.603v93.013h75.779
	C352.82,372.05,361.097,392.152,349.32,403.861L349.32,403.861z M438.322,122.079L324.498,8.139C319.265,2.907,312.173,0,304.732,0
	h-7.092v148.82h148.82v-7.092C446.46,134.403,443.554,127.311,438.322,122.079z"/>
</svg>
