<?xml version="1.0" encoding="utf-8"?>
<!-- Generator: Adobe Illustrator 16.0.0, SVG Export Plug-In . SVG Version: 6.00 Build 0)  -->
<!DOCTYPE svg PUBLIC "-//W3C//DTD SVG 1.1//EN" "http://www.w3.org/Graphics/SVG/1.1/DTD/svg11.dtd">
<svg version="1.1" id="Calque_1" xmlns="http://www.w3.org/2000/svg" xmlns:xlink="http://www.w3.org/1999/xlink" x="0px" y="0px"
	 width="610px" height="595.281px" viewBox="107.445 0 610 595.281" enable-background="new 107.445 0 610 595.281"
	 xml:space="preserve">
<path fill="#FFFFFF" d="M370.175,260.822H137.256c-7.705,0-13.952-6.247-13.952-13.952V13.952C123.305,6.247,129.552,0,137.256,0
	h55.808c7.705,0,13.952,6.247,13.952,13.952v90.817c53.218-59.102,130.52-96.084,216.458-95.46
	c159.174,1.155,286.533,129.779,286.195,288.958c-0.338,158.957-129.301,287.711-288.337,287.711
	c-74.514,0-142.421-28.268-193.594-74.658c-5.928-5.375-6.201-14.598-0.542-20.254l39.492-39.492
	c5.202-5.201,13.559-5.484,19.069-0.611c36.084,31.932,83.544,51.305,135.576,51.305c113.089,0,204.628-91.52,204.628-204.627
	c0-113.088-91.521-204.627-204.628-204.627c-68.011,0-128.218,33.107-165.416,84.098h114.259c7.705,0,13.952,6.247,13.952,13.952
	v55.808C384.127,254.575,377.88,260.822,370.175,260.822L370.175,260.822z"/>
</svg>
