<?xml version="1.0" encoding="utf-8"?>
<!-- Generator: Adobe Illustrator 16.0.0, SVG Export Plug-In . SVG Version: 6.00 Build 0)  -->
<!DOCTYPE svg PUBLIC "-//W3C//DTD SVG 1.1//EN" "http://www.w3.org/Graphics/SVG/1.1/DTD/svg11.dtd">
<svg version="1.1" id="Calque_1" xmlns="http://www.w3.org/2000/svg" xmlns:xlink="http://www.w3.org/1999/xlink" x="0px" y="0px"
	 width="446.46px" height="595.281px" viewBox="197.715 0 446.46 595.281" enable-background="new 197.715 0 446.46 595.281"
	 xml:space="preserve">
<linearGradient id="SVGID_1_" gradientUnits="userSpaceOnUse" x1="197.7148" y1="297.6401" x2="644.1753" y2="297.6401">
	<stop  offset="0" style="stop-color:#FFE67F;stop-opacity:0.7"/>
	<stop  offset="9.000042e-004" style="stop-color:#FFE67E;stop-opacity:0.7011"/>
	<stop  offset="0.0259" style="stop-color:#FFDF73;stop-opacity:0.7326"/>
	<stop  offset="0.0609" style="stop-color:#FFDB6C;stop-opacity:0.7769"/>
	<stop  offset="0.1584" style="stop-color:#FFDA6A;stop-opacity:0.9"/>
	<stop  offset="0.1962" style="stop-color:#FFD660;stop-opacity:0.8912"/>
	<stop  offset="0.5891" style="stop-color:#FFAA00;stop-opacity:0.8"/>
	<stop  offset="0.69" style="stop-color:#FF9F20;stop-opacity:0.8728"/>
	<stop  offset="0.8663" style="stop-color:#FF8D54"/>
</linearGradient>
<path fill="url(#SVGID_1_)" d="M458.15,158.121V0H225.619c-15.463,0-27.904,12.44-27.904,27.904v539.473
	c0,15.463,12.44,27.904,27.904,27.904h390.652c15.463,0,27.904-12.441,27.904-27.904V186.025H486.054
	C470.707,186.025,458.15,173.468,458.15,158.121z M533.931,409.267H458.15v93.012c0,10.279-8.324,18.604-18.604,18.604h-37.204
	c-10.278,0-18.603-8.324-18.603-18.604v-93.012h-75.782c-16.603,0-24.893-20.104-13.104-31.811L406.958,266.19
	c7.732-7.686,20.219-7.686,27.95,0l112.104,111.266C558.812,389.164,550.535,409.267,533.931,409.267z M636.037,122.079
	L522.212,8.139C516.98,2.907,509.888,0,502.447,0h-7.092v148.82h148.82v-7.092C644.175,134.403,641.269,127.311,636.037,122.079z"/>
</svg>
