<?xml version="1.0" encoding="utf-8"?>
<!-- Generator: Adobe Illustrator 16.0.0, SVG Export Plug-In . SVG Version: 6.00 Build 0)  -->
<!DOCTYPE svg PUBLIC "-//W3C//DTD SVG 1.1//EN" "http://www.w3.org/Graphics/SVG/1.1/DTD/svg11.dtd">
<svg version="1.1" id="Calque_1" xmlns="http://www.w3.org/2000/svg" xmlns:xlink="http://www.w3.org/1999/xlink" x="0px" y="0px"
	 width="590px" height="588.14px" viewBox="126.445 0 590 588.14" enable-background="new 126.445 0 590 588.14"
	 xml:space="preserve">
<linearGradient id="SVGID_1_" gradientUnits="userSpaceOnUse" x1="132.606" y1="292.646" x2="709.2827" y2="292.646">
	<stop  offset="0" style="stop-color:#334C76"/>
	<stop  offset="1" style="stop-color:#000033;stop-opacity:0.9"/>
</linearGradient>
<path fill="url(#SVGID_1_)" d="M420.945,4.308c-159.284,0-288.339,129.055-288.339,288.339
	c0,159.283,129.055,288.337,288.339,288.337c159.283,0,288.338-129.055,288.338-288.337
	C709.283,133.362,580.228,4.308,420.945,4.308z M588.367,325.201c0,7.674-6.277,13.951-13.951,13.951H467.451v106.965
	c0,7.674-6.277,13.951-13.951,13.951h-65.109c-7.674,0-13.952-6.277-13.952-13.951V339.152H267.474
	c-7.673,0-13.952-6.277-13.952-13.951v-65.108c0-7.674,6.278-13.952,13.952-13.952h106.964V139.176
	c0-7.673,6.278-13.952,13.952-13.952H453.5c7.674,0,13.951,6.278,13.951,13.952V246.14h106.965c7.674,0,13.951,6.278,13.951,13.952
	V325.201z"/>
</svg>
