<?xml version="1.0" encoding="utf-8"?>
<!-- Generator: Adobe Illustrator 16.0.0, SVG Export Plug-In . SVG Version: 6.00 Build 0)  -->
<!DOCTYPE svg PUBLIC "-//W3C//DTD SVG 1.1//EN" "http://www.w3.org/Graphics/SVG/1.1/DTD/svg11.dtd">
<svg version="1.1" id="Calque_1" xmlns="http://www.w3.org/2000/svg" xmlns:xlink="http://www.w3.org/1999/xlink" x="0px" y="0px"
	 width="602px" height="588.14px" viewBox="223.5 -5 602 588.14" enable-background="new 223.5 -5 602 588.14" xml:space="preserve"
	>
<linearGradient id="SVGID_1_" gradientUnits="userSpaceOnUse" x1="235.606" y1="287.646" x2="812.2832" y2="287.646">
	<stop  offset="0" style="stop-color:#FFAA00"/>
	<stop  offset="0.3267" style="stop-color:#FF9700;stop-opacity:0.9347"/>
	<stop  offset="0.9839" style="stop-color:#FF6700;stop-opacity:0.8032"/>
	<stop  offset="1" style="stop-color:#FF6600;stop-opacity:0.8"/>
</linearGradient>
<path fill="url(#SVGID_1_)" d="M523.945-0.692c-159.284,0-288.339,129.055-288.339,288.339
	c0,159.282,129.055,288.337,288.339,288.337c159.283,0,288.338-129.055,288.338-288.337
	C812.283,128.362,683.229-0.692,523.945-0.692z M691.367,320.201c0,7.674-6.277,13.951-13.951,13.951H570.451v106.965
	c0,7.674-6.277,13.951-13.951,13.951h-65.109c-7.674,0-13.951-6.277-13.951-13.951V334.152H370.475
	c-7.674,0-13.953-6.277-13.953-13.951v-65.108c0-7.674,6.278-13.952,13.953-13.952h106.963V134.176
	c0-7.673,6.278-13.952,13.953-13.952H556.5c7.674,0,13.951,6.278,13.951,13.952V241.14h106.965c7.674,0,13.951,6.278,13.951,13.952
	V320.201z"/>
</svg>
